<svg xmlns="http://www.w3.org/2000/svg" width="512" height="512" id="controller">
  <path d="M328.515 388.763C308.454 388.113 293.794 390.268 275.734 398.593C265.82 403.163 257.989 406.699 246.762 405.582C225.533 403.468 232.878 388.187 217.212 421.389C203.302 450.869 174.279 497.279 143.032 508.311C111.94 519.288 90.7305 493.225 81.459 466.27C68.6858 429.135 74.7127 383.694 83.3835 346.396L93.5228 309.066L115.239 250.33C126.281 221.406 138.187 199.725 168.437 189.492L168.503 184.844C169.902 168.008 184.817 161.621 199.553 161.575L213.266 161.561C217.588 161.565 222.31 161.197 226.593 161.69C237.11 162.9 248.35 175.633 249.315 186.094C249.647 189.698 248.977 193.382 248.572 196.959L248.797 197.211C254.336 202.612 262.85 201.318 269.789 201.317L298.092 201.177C298.549 199.717 298.519 198.072 298.815 196.562C300.25 189.249 306.169 183.188 313.037 180.68L312.926 164.055C312.927 157.301 311.405 150.868 318.868 147.828C326.765 147.723 326.774 153.839 326.784 159.568L326.789 172.845C326.788 175.593 325.522 180.442 328.71 181.485C337.243 184.275 340.583 193.119 341.403 201.301L386.694 201.511C390.122 201.497 392.56 198.443 394.991 196.275C385.172 187.123 387.236 183.497 394.531 175.222C407.426 160.594 411.205 161.599 431.052 161.561L448.249 161.579C461.404 162.095 470.901 174.467 472.734 186.71C473.256 190.197 472.768 189.314 476.236 190.705L484.473 194.298C512.136 207.667 521.621 239.501 531.675 266.25L543.74 298.572C556.412 335.698 566.461 376.046 566.428 415.576L566.279 429.205C564.463 460.989 548.673 513.691 508.362 510.847C476.312 508.586 444.589 462.391 430.223 435.048L419.732 413.98C418.646 411.816 413.807 401.158 411.585 400.52C410.593 400.235 393.247 406.934 383.302 405.486C376.054 404.43 369.451 400.686 362.851 397.716C351.7 392.698 340.747 389.535 328.515 388.763ZM194.152 175.681C188.36 176.442 184.888 179.195 183.1 184.98L182.957 185.459C182.797 185.969 182.879 185.767 182.589 186.248L224.923 186.394L234.388 187.5C234.307 182.467 231.52 179.257 227.344 176.949L226.958 176.732C223.231 174.688 199.588 175.66 194.152 175.681ZM417.728 175.681C407.887 176.829 400.348 187.521 406.489 186.92L412.413 186.435C417.112 186.1 421.885 186.249 426.596 186.245L444.219 186.256L458.338 186.286C454.66 173.573 445.448 175.631 435.074 175.637L417.728 175.681ZM317.235 194.421C304.817 199.785 319.424 209.814 308.438 214.867C306.065 215.957 301.056 215.344 298.414 215.347L275.274 215.358C268.499 215.357 261.343 215.816 254.609 215.286C244.939 214.525 241.966 206.161 234.345 202.862C225.628 199.088 213.76 200.341 204.55 200.352C166.182 200.396 149.548 205.749 132.967 244.248L109.761 304.157L101.972 330C95.5147 352.947 90.2859 376.839 88.7249 400.68L88.4206 416.604C88.4005 433.479 90.1913 450.858 96.5242 466.632C110.859 502.335 134.352 505.823 161.726 478.764C179.095 461.595 191.733 440.167 202.848 418.605L209.742 404.271C214.188 394.936 221.94 383.128 234.219 386.181L234.646 386.283C237.308 386.955 239.723 388.52 242.188 389.684C253.761 395.148 263.764 388.515 274.37 383.945C290.443 377.019 304.936 374.639 322.109 374.611C337.66 374.77 353.293 377.787 367.442 384.368C374.601 387.698 381.78 392.046 389.957 391.792C402.436 391.405 409.626 378.53 423.46 392.719C426.824 396.169 428.829 400.817 430.911 405.105L438.497 420.666C450.743 444.284 495.387 521.541 529.447 489.145C563.546 456.713 552.905 386.719 542.69 344.774L532.317 307.706L517.801 268.561C510.894 250.423 504.869 230.588 491.03 216.347C482.362 207.426 468.503 200.455 455.916 200.334L432.883 200.314C425.171 200.317 415.715 199.478 408.281 201.767C402.3 203.608 399.983 211.14 394.181 213.686C386.608 217.01 376.367 215.364 368.338 215.36L334.688 215.34C320.846 215.141 334.561 191.766 317.235 194.421Z" transform="scale(.8)"></path>
  <path d="M446.575 261.083C419.396 263.318 417.447 223.796 443.441 220.422 467.961 217.915 474.725 257.302 446.575 261.083zM444.138 234.699C435.939 238.144 437.883 247.391 446.284 247.259 453.969 244.046 452.927 234.381 444.138 234.699zM197.112 342.484L193.125 342.505C187.638 342.33 182.132 339.422 178.439 335.435 171.529 327.977 172.827 318.685 173.092 309.353 163.833 309.36 153.547 311.72 145.539 305.779 140.831 302.287 137.093 296.735 136.257 290.875L136.183 290.312C135.126 282.638 138.638 276.002 144.426 271.022 151.568 264.876 163.364 265.388 172.393 266.029L172.799 266.06C172.875 249.721 173.598 235.161 193.004 231.964L195.379 231.884C200.993 231.896 206.366 234.301 210.3 238.252 218.011 245.994 216.234 256.404 216.152 266.367 220.345 265.714 225.199 265.797 229.458 265.815 249.061 265.897 261.623 288.862 246.339 303.504 238.083 311.413 226.438 309.769 215.928 309.55 216.309 325.134 216.511 339.198 197.112 342.484zM194.048 245.357C190.965 246.104 188.869 247.273 187.797 250.312L187.638 250.75C187.075 252.452 187.201 254.376 187.208 256.152L187.31 265.461C187.774 295.788 154.806 269.486 150.034 285.74 147.814 293.303 154.132 295.607 160.056 295.613L171.978 295.6C183.582 295.583 187.258 298.451 187.274 309.844L187.281 319.564C187.301 325.415 189.092 330.153 196.441 328.393 201.297 326.51 201.869 322.643 201.846 318.039L201.736 308.365C201.452 297.405 206.075 294.549 217.282 295.311L226.503 295.565C230.707 295.596 236.534 295.814 238.747 291.406 241.923 285.077 235.683 280.217 228.906 280.292L219.238 280.424C207.937 280.722 201.483 280.818 201.699 268.177L201.977 258.159C202.331 251.996 201.775 245.346 194.048 245.357zM297.031 269.375L288.123 269.379C283.911 269.366 278.468 268.645 278.002 263.125 277.375 255.714 285.558 255.304 290.647 255.294L342.391 255.284 350.47 255.183C355.023 255.141 361.234 255.834 361.352 261.9 361.5 269.492 353.766 269.351 348.805 269.358L297.031 269.375zM405.992 297.504C379.514 300.437 373.173 262.261 400.809 257.26 426.303 255.526 432.554 292.036 405.992 297.504zM402.086 270.969C393.916 273.017 395.083 283.535 404.09 283.618 411.817 280.911 410.939 271.418 402.086 270.969zM488.907 297.755C462.777 300.034 456.294 263.102 483.578 257.882 510.757 255.588 515.082 292.7 488.907 297.755zM485.857 271.302C477.187 273.149 476.785 283.088 486.197 283.884 494.3 282.442 494.679 271.879 485.857 271.302zM447.259 338.722C420.47 341.378 415.544 303.151 442.28 298.204 470.664 296.951 472.703 333.802 447.259 338.722zM442.886 312.224C435.32 316.657 438.003 326.6 446.69 324.611 454.344 320.555 451.511 311.77 442.886 312.224zM377.878 376.694C334.957 379.36 331.417 315.258 374.546 311.689 390.583 310.911 405.279 321.859 408.114 337.97L408.62 341.133C410.58 359.986 396.138 375.099 377.878 376.694zM374.777 325.74C350.394 328.852 352.278 363.954 378.368 362.809 401.448 358.337 399.161 325.23 374.777 325.74zM266.643 376.741C223.676 378.916 218.748 316.329 261.543 312.002 299.95 306.459 312.934 370.626 266.643 376.741zM261.325 326.004C236.3 330.872 242.819 365.381 267.139 362.644 291.707 356.859 284.804 323.041 261.325 326.004z" transform="scale(.8)"></path>
</svg>
