<svg xmlns="http://www.w3.org/2000/svg" xml:space="preserve" id="ac" x="0" y="0" style="enable-background:new 0 0 55 55" version="1.1" viewBox="0 0 55 55">
  <g>
    <path d="M48.75,10.0126953H6.25c-1.5166016,0-2.75,1.2333984-2.75,2.75v15.2636719c0,1.5166016,1.2333984,2.75,2.75,2.75
		c5.630558,0,37.7166595,0,42.5,0c1.5166016,0,2.75-1.2333984,2.75-2.75V12.7626953
		C51.5,11.2460938,50.2666016,10.0126953,48.75,10.0126953z M45.5639648,26.0292969H9.4360352v-0.4970703
		c0-0.6894531,0.5605469-1.25,1.25-1.25h33.6279297c0.6894531,0,1.25,0.5605469,1.25,1.25V26.0292969z M9.4360352,29.2763672
		v-1.7470703h36.1279297v1.7470703H9.4360352z M50,28.0263672c0,0.6894531-0.5605469,1.25-1.25,1.25h-1.6860352
		c0-0.1987972,0-3.8823643,0-3.7441406c0-1.5166016-1.2338867-2.75-2.75-2.75H10.6860352c-1.5161133,0-2.75,1.2333984-2.75,2.75
		v3.7441406H6.25c-0.6894531,0-1.25-0.5605469-1.25-1.25V12.7626953c0-0.6894531,0.5605469-1.25,1.25-1.25h42.5
		c0.6894531,0,1.25,0.5605469,1.25,1.25V28.0263672z"></path>
    <path d="M10.7490234 15.0810547c-.3105841-.2967806-.788662-.2831287-1.0698242 0-.2811947.2831612-.3031464.7563438 0 1.0605469.302165.3011799.7832298.2856598 1.0698242 0C10.9975872 15.8921719 11.0577269 15.4424629 10.7490234 15.0810547zM14.2089844 15.0810547c-.2900543-.2920828-.7696486-.2919493-1.0595703 0-.2853127.2853127-.300746.7587528 0 1.0605469.273263.2923717.7836695.2951946 1.0595703 0C14.5121813 15.837348 14.490037 15.3621073 14.2089844 15.0810547zM31.6918945 17.2363281h-8.3837891c-.4140625 0-.75.3359375-.75.75s.3359375.75.75.75h8.3837891c.4140625 0 .75-.3359375.75-.75S32.105957 17.2363281 31.6918945 17.2363281zM42.3032227 44.7675781c.1464844.1464844.3383789.2197266.5302734.2197266s.3837891-.0732422.5302734-.2197266c.2929688-.2929688.2929688-.7675781 0-1.0605469-1.1303711-1.1298828-1.1303711-2.9697266 0-4.0996094.8310547-.8310547 1.2885742-1.9355469 1.2885742-3.1103516s-.4575195-2.2792969-1.2885742-3.1103516c-.2929688-.2929688-.7675781-.2929688-1.0605469 0s-.2929688.7675781 0 1.0605469c.5473633.5478516.8491211 1.2763672.8491211 2.0498047 0 .7744141-.3012695 1.5019531-.8491211 2.0498047C40.5878906 40.2617188 40.5878906 43.0527344 42.3032227 44.7675781zM34.6367188 44.7675781c.2929611.2929611.7675705.2929764 1.0605469 0 .2929688-.2929688.2929688-.7675781 0-1.0605469-1.132534-1.132534-1.1336327-2.9659767 0-4.0996094 1.7143555-1.7148438 1.7148438-4.5048828 0-6.2207031-.2919922-.2929688-.7675781-.2929688-1.0605469 0s-.2929688.7675781 0 1.0605469c1.1298828 1.1308594 1.1298828 2.9697266 0 4.0996094C32.9175949 40.2659988 32.9169655 43.0478249 34.6367188 44.7675781zM26.9697266 44.7675781c.2929611.2929611.7675705.2929764 1.0605469 0 .2929688-.2929688.2929688-.7675781 0-1.0605469-1.1303711-1.1298828-1.1303711-2.9697266 0-4.0996094 1.7191219-1.7191238 1.7197533-4.5009499 0-6.2207031-.2929688-.2929688-.7675781-.2929688-1.0605469 0s-.2929688.7675781 0 1.0605469c1.1323071 1.133316 1.1337032 2.9659042 0 4.0996094C25.2543945 40.2617188 25.2543945 43.0527344 26.9697266 44.7675781zM19.3032227 44.7675781c.2929611.2929611.7675705.2929764 1.0605469 0 .2929688-.2929688.2929688-.7675781 0-1.0605469-1.132534-1.132534-1.1336308-2.9659767 0-4.0996094 1.7143555-1.7148438 1.7148438-4.5048828 0-6.2207031-.2919922-.2929688-.7675781-.2929688-1.0605469 0s-.2929688.7675781 0 1.0605469c1.1298828 1.1308594 1.1298828 2.9697266 0 4.0996094C17.5841007 40.2659988 17.5834694 43.0478249 19.3032227 44.7675781zM11.6362305 44.7675781c.2929611.2929611.7675695.2929764 1.0605469 0 .2929688-.2929688.2929688-.7675781 0-1.0605469-1.1303711-1.1298828-1.1303711-2.9697266 0-4.0996094 1.7143555-1.7148438 1.7148438-4.5048828 0-6.2207031-.2919922-.2929688-.7675781-.2929688-1.0605469 0s-.2929688.7675781 0 1.0605469c1.1298828 1.1308594 1.1298828 2.9697266 0 4.0996094C9.9208984 40.2617188 9.9208984 43.0527344 11.6362305 44.7675781z"></path>
  </g>
</svg>
