<svg xmlns="http://www.w3.org/2000/svg" viewBox="0 0 24 24" id="lock">
  <path d="m3.26,3v18c0,.83.73,1.5,1.62,1.5h6.75c.9,0,1.62-.67,1.62-1.5v-2.5h5.98c.83,0,1.5-.67,1.5-1.5s-.67-1.5-1.5-1.5h-5.98V3c0-.83-.73-1.5-1.62-1.5h-6.75c-.9,0-1.62.67-1.62,1.5Zm16.48,14c0,.28-.22.5-.5.5h-10.82c-.28,0-.5-.22-.5-.5s.22-.5.5-.5h10.82c.28,0,.5.22.5.5Zm-11.32,1.5h2c-.46.62-1.19,1-2,1-1.38,0-2.5-1.12-2.5-2.5s1.12-2.5,2.5-2.5c.81,0,1.54.38,2,1h-2c-.83,0-1.5.67-1.5,1.5s.67,1.5,1.5,1.5Zm3.84-15.5v12.5h-.69c-.56-1.21-1.78-2-3.15-2-1.93,0-3.5,1.57-3.5,3.5s1.57,3.5,3.5,3.5c1.37,0,2.58-.79,3.15-2h.69v2.5c0,.27-.29.5-.62.5h-6.75c-.34,0-.62-.23-.62-.5V3c0-.27.29-.5.62-.5h6.75c.34,0,.62.23.62.5Z"></path>
  <path d="M6.24 5.5h4c.28 0 .5-.22.5-.5s-.22-.5-.5-.5h-4c-.28 0-.5.22-.5.5s.22.5.5.5zM6.05 7.46c.06.03.13.04.19.04.13 0 .26-.05.36-.15.09-.09.14-.22.14-.35s-.05-.26-.14-.35c-.14-.14-.37-.19-.55-.11-.06.02-.11.06-.16.11-.05.04-.08.1-.11.16-.03.06-.04.13-.04.19 0 .13.05.26.15.35.04.05.1.09.16.11zM8.05 6.54c-.06.02-.11.06-.16.11-.1.09-.15.22-.15.35 0 .07.01.13.04.19.03.06.06.12.11.17.05.04.1.08.16.1.06.03.13.04.19.04.13 0 .26-.05.36-.14.04-.05.08-.11.1-.17.03-.06.04-.12.04-.19 0-.13-.05-.26-.14-.35-.14-.14-.36-.19-.55-.11zM6.05 9.46c.06.03.13.04.19.04.13 0 .26-.05.36-.15.04-.04.08-.1.1-.16.03-.06.04-.13.04-.19s0-.13-.04-.19c-.02-.06-.06-.12-.1-.16-.14-.14-.36-.19-.55-.11-.06.02-.11.06-.16.11-.05.04-.08.1-.11.16-.03.06-.04.13-.04.19 0 .13.05.26.15.35.05.05.1.09.16.11zM8.6 8.65c-.14-.14-.36-.19-.55-.11-.06.02-.11.06-.16.11-.05.04-.08.1-.11.16-.03.06-.04.13-.04.19 0 .07.01.13.04.19.03.06.06.12.11.16.05.05.1.09.16.11.06.03.13.04.19.04.13 0 .26-.05.36-.15.04-.04.08-.1.1-.16.03-.06.04-.12.04-.19 0-.06 0-.13-.04-.19-.02-.06-.06-.12-.1-.16zM9.89 6.65c-.09.09-.15.22-.15.35 0 .07.02.13.04.19.03.06.06.12.11.16.09.1.22.15.35.15s.26-.05.35-.15c.05-.04.09-.1.11-.16.03-.06.04-.12.04-.19 0-.13-.05-.26-.15-.35-.18-.19-.52-.19-.7 0zM9.89 8.65c-.09.09-.15.22-.15.35 0 .07.02.13.04.19.03.06.06.12.11.16.09.1.22.15.35.15s.26-.05.35-.15c.05-.04.09-.1.11-.16.03-.06.04-.12.04-.19 0-.13-.05-.26-.15-.35-.18-.19-.52-.19-.7 0zM5.89 11.35c.05.05.1.09.16.11.06.03.13.04.19.04.13 0 .26-.05.36-.15.09-.09.14-.22.14-.35 0-.06 0-.13-.04-.19-.02-.06-.06-.12-.1-.16-.14-.14-.37-.19-.55-.11-.06.02-.12.06-.16.11-.1.09-.15.22-.15.35 0 .07.01.13.04.19.03.06.06.12.11.16zM8.6 10.65c-.14-.14-.36-.19-.55-.11-.06.02-.11.06-.16.11-.05.04-.08.1-.11.16-.03.06-.04.13-.04.19s.01.13.04.19c.03.06.06.12.11.16.05.05.1.09.16.11.06.03.13.04.19.04.13 0 .26-.05.36-.15.04-.04.08-.1.1-.16.03-.06.04-.13.04-.19s0-.13-.04-.19c-.02-.06-.06-.12-.1-.16zM9.89 10.65c-.09.09-.15.22-.15.35 0 .07.02.13.04.19.03.06.06.12.11.16.09.1.22.15.35.15s.26-.05.35-.15c.05-.04.09-.1.11-.16.03-.06.04-.12.04-.19 0-.13-.05-.26-.15-.35-.18-.19-.52-.19-.7 0zM16.05 11.54c-.06.02-.12.06-.16.11-.09.09-.15.22-.15.35 0 .07.02.13.04.19.03.06.06.12.11.16.04.05.1.09.16.11.06.03.13.04.19.04.13 0 .26-.05.35-.15.05-.04.09-.1.11-.16.03-.06.04-.12.04-.19 0-.13-.05-.26-.15-.35-.13-.14-.36-.19-.54-.11zM17.74 12c0 .28.22.5.5.5s.5-.22.5-.5c0-1.38-1.12-2.5-2.5-2.5-.28 0-.5.22-.5.5s.22.5.5.5c.83 0 1.5.67 1.5 1.5z"></path>
  <path d="m20.24,12.5c.28,0,.5-.22.5-.5,0-2.48-2.02-4.5-4.5-4.5-.28,0-.5.22-.5.5s.22.5.5.5c1.93,0,3.5,1.57,3.5,3.5,0,.28.22.5.5.5Z"></path>
</svg>
