<svg xmlns="http://www.w3.org/2000/svg" viewBox="0 0 48 48" id="smartwatch">
  <path fill="#232323" d="M10.591 4.2a.749.749 0 0 0 .929-.51L12.156 1.5H33.885l.636 2.188a.75.75 0 0 0 .72.541A.715.715 0 0 0 35.45 4.2a.747.747 0 0 0 .511-.928L35.168.541A.75.75 0 0 0 34.448 0H11.593a.75.75 0 0 0-.72.541L10.08 3.27A.747.747 0 0 0 10.591 4.2zM35.437 43.6a.744.744 0 0 0-.919.527L33.874 46.5H12.167l-.644-2.378a.75.75 0 0 0-1.447.393l.793 2.931a.75.75 0 0 0 .724.554H34.448a.75.75 0 0 0 .724-.554l.793-2.931A.749.749 0 0 0 35.437 43.6zM40.545 15.465h-1.38V10.011a4.885 4.885 0 0 0-4.88-4.88H11.027a4.885 4.885 0 0 0-4.879 4.88V37.939a4.884 4.884 0 0 0 4.879 4.879H34.285a4.884 4.884 0 0 0 4.88-4.879V22.877h1.38a1.308 1.308 0 0 0 1.307-1.307v-4.8A1.308 1.308 0 0 0 40.545 15.465zm-2.88 22.474a3.383 3.383 0 0 1-3.38 3.379H11.027a3.382 3.382 0 0 1-3.379-3.379V10.011a3.383 3.383 0 0 1 3.379-3.38H34.285a3.384 3.384 0 0 1 3.38 3.38zm2.687-16.562H39.165V16.965h1.187z"></path>
  <path fill="#232323" d="M40.622 26.305a.75.75 0 0 0-.75.75v7.769a.75.75 0 0 0 1.5 0V27.055A.75.75 0 0 0 40.622 26.305zM34.934 18.051H30.593a6.111 6.111 0 0 0-.484-5.024 4.188 4.188 0 0 0-3.594-2.072 5 5 0 0 0-4.05 1.856 5 5 0 0 0-4.05-1.856 4.116 4.116 0 0 0-3.15 1.467 5.668 5.668 0 0 0-1.191 4.553.751.751 0 0 0 1.485-.219A4.228 4.228 0 0 1 16.4 13.4a2.617 2.617 0 0 1 2.015-.947A3.524 3.524 0 0 1 21.764 14.5a.745.745 0 0 0 .7.481h.006a.753.753 0 0 0 .7-.476 3.526 3.526 0 0 1 3.351-2.052 2.685 2.685 0 0 1 2.32 1.362 4.737 4.737 0 0 1 .171 4.234h-.233l-.653-1.195a.773.773 0 0 0-.676-.389.753.753 0 0 0-.656.42l-.764 1.561-.6-2.951a.752.752 0 0 0-.66-.6.745.745 0 0 0-.766.454l-1.144 2.7h-.546a.749.749 0 0 0-.727.563l-.318 1.241-1.449-5.133a.747.747 0 0 0-.716-.546h0a.75.75 0 0 0-.719.537L17.32 18.278H10.4a.75.75 0 0 0 0 1.5h4.714c.011.018.02.036.031.054 1.3 2.078 6.505 7.611 6.726 7.847a.752.752 0 0 0 .543.235h0a.755.755 0 0 0 .542-.231c.15-.158 3.71-3.88 5.728-6.377a.75.75 0 0 0-1.166-.944c-1.517 1.877-4 4.546-5.1 5.707-1.2-1.295-4.094-4.447-5.483-6.291h.939a.749.749 0 0 0 .719-.537l.477-1.613 1.5 5.315a.749.749 0 0 0 .722.546h.009a.749.749 0 0 0 .717-.563l.867-3.375h.462a.75.75 0 0 0 .69-.457l.394-.928.556 2.742a.75.75 0 0 0 1.409.181l1.1-2.242.172.314a.752.752 0 0 0 .658.39h6.6a.75.75 0 0 0 0-1.5zM17.912 35.161a1.7 1.7 0 0 0-.318-.355 1.9 1.9 0 0 0-.408-.264 1.619 1.619 0 0 0 .291-.238A1.58 1.58 0 0 0 17.7 34a1.5 1.5 0 0 0 .15-.365 1.645 1.645 0 0 0 .053-.423 1.529 1.529 0 0 0-.075-.489 1.685 1.685 0 0 0-.2-.411 1.808 1.808 0 0 0-.291-.331A2.3 2.3 0 0 0 17 31.729a1.351 1.351 0 0 0-.4-.158 3.756 3.756 0 0 0-.491-.079c-.171-.016-.343-.027-.516-.03s-.332 0-.478 0H13.557a.863.863 0 0 0-.344.069.884.884 0 0 0-.28.192.929.929 0 0 0-.19.281.863.863 0 0 0-.069.344v4.893a.824.824 0 0 0 .066.33.859.859 0 0 0 .183.271.874.874 0 0 0 .27.184.816.816 0 0 0 .33.068h2.385a2.753 2.753 0 0 0 .681-.08 2.349 2.349 0 0 0 .565-.22 2.107 2.107 0 0 0 .449-.334 2.053 2.053 0 0 0 .325-.418 1.973 1.973 0 0 0 .2-.473 1.927 1.927 0 0 0 .066-.5 1.556 1.556 0 0 0-.073-.478A1.677 1.677 0 0 0 17.912 35.161zm-3.8-2.55h1.238a2.879 2.879 0 0 1 .434.031 1.072 1.072 0 0 1 .36.112.633.633 0 0 1 .244.232.755.755 0 0 1 .089.388.8.8 0 0 1-.063.324.612.612 0 0 1-.2.247 1 1 0 0 1-.35.159 2.018 2.018 0 0 1-.515.057H14.114zM16.688 36.4a.783.783 0 0 1-.184.283.828.828 0 0 1-.3.187 1.159 1.159 0 0 1-.416.069H14.114V35.223h1.5a1.853 1.853 0 0 1 .413.045 1.2 1.2 0 0 1 .367.142.793.793 0 0 1 .261.254.676.676 0 0 1 .1.374A.994.994 0 0 1 16.688 36.4zM23.805 32a1.8 1.8 0 0 0-.7-.406 3.035 3.035 0 0 0-.971-.14l-2.292 0a.758.758 0 0 0-.28.052.714.714 0 0 0-.225.141.642.642 0 0 0-.152.214.634.634 0 0 0-.057.274v5.342a.662.662 0 0 0 .209.487.752.752 0 0 0 1.009 0 .662.662 0 0 0 .209-.487V35.548h1.579a3.114 3.114 0 0 0 .971-.125 1.815 1.815 0 0 0 .7-.386 1.606 1.606 0 0 0 .418-.634 2.521 2.521 0 0 0 .139-.866 2.61 2.61 0 0 0-.139-.881A1.683 1.683 0 0 0 23.805 32zm-.934 1.9a.706.706 0 0 1-.2.278.909.909 0 0 1-.338.176 1.556 1.556 0 0 1-.484.054H20.557V32.654h1.294a1.665 1.665 0 0 1 .484.064.912.912 0 0 1 .338.178.735.735 0 0 1 .2.28 1.035 1.035 0 0 1 0 .722zM31.994 31.6a.7.7 0 0 0-.268-.112 1.584 1.584 0 0 0-.308-.03h-.3a1.251 1.251 0 0 0-.318.037.641.641 0 0 0-.237.116.72.72 0 0 0-.176.207 1.526 1.526 0 0 0-.134.314l-1.467 4.15h-.023l-1.483-4.15a1.579 1.579 0 0 0-.136-.314.755.755 0 0 0-.177-.207.664.664 0 0 0-.237-.116 1.26 1.26 0 0 0-.319-.037h-.322a1.574 1.574 0 0 0-.307.03.7.7 0 0 0-.268.112.585.585 0 0 0-.192.223.8.8 0 0 0-.073.365v5.248a.961.961 0 0 0 .039.269.676.676 0 0 0 .119.231.567.567 0 0 0 .212.161.772.772 0 0 0 .32.059.762.762 0 0 0 .318-.059.575.575 0 0 0 .212-.161.659.659 0 0 0 .119-.231.961.961 0 0 0 .038-.269V34.114l-.046-.766.15.68 1.366 3.7a.575.575 0 0 0 .247.329.911.911 0 0 0 .826 0 .571.571 0 0 0 .247-.329l1.367-3.695.15-.667-.05.743v3.327a1 1 0 0 0 .036.269.615.615 0 0 0 .12.231.574.574 0 0 0 .214.161.752.752 0 0 0 .316.059.77.77 0 0 0 .321-.059.57.57 0 0 0 .213-.161.694.694 0 0 0 .119-.231.961.961 0 0 0 .038-.269V32.19a.809.809 0 0 0-.073-.365A.591.591 0 0 0 31.994 31.6z"></path>
</svg>
