<svg xmlns="http://www.w3.org/2000/svg" viewBox="0 0 48 48" id="camera-mode">
  <path d="M24,38A11,11,0,1,0,13,27,11,11,0,0,0,24,38Zm0-20a9,9,0,1,1-9,9A9,9,0,0,1,24,18Zm0,16a7,7,0,1,0-7-7A7,7,0,0,0,24,34Zm0-12a5,5,0,1,1-5,5A5,5,0,0,1,24,22Zm2,6H22V26h4ZM41,12H30.85L30,6.84A1,1,0,0,0,29,6H19a1,1,0,0,0-1,.84L17.15,12H11V9a1,1,0,0,0-1-1H6A1,1,0,0,0,5,9v3.42A5,5,0,0,0,2,17V37a5,5,0,0,0,5,5H41a5,5,0,0,0,5-5V17A5,5,0,0,0,41,12ZM18,14a1,1,0,0,0,1-.84L19.85,8h8.3L29,13.16A1,1,0,0,0,30,14h7V40H11V14ZM7,10H9v2H7ZM4,37V17a3,3,0,0,1,3-3H9V40H7A3,3,0,0,1,4,37Zm40,0a3,3,0,0,1-3,3H39V14h2a3,3,0,0,1,3,3Z"></path>
</svg>
