<svg xmlns="http://www.w3.org/2000/svg" width="64" height="64" id="refrigerator">
  <path d="M50.563 2.5a2.5 2.5 0 0 0-2.5-2.5H15.938a2.5 2.5 0 0 0-2.5 2.5v20.578c0 .591.206 1.134.549 1.562-.343.428-.549.97-.549 1.561V61.5a2.5 2.5 0 0 0 2.5 2.5h32.125a2.5 2.5 0 0 0 2.5-2.5V26.201c0-.591-.207-1.134-.549-1.562.342-.428.549-.971.549-1.562V2.5zm-1.875 59c0 .345-.28.625-.625.625H15.938a.625.625 0 0 1-.625-.625V26.201c0-.345.28-.625.625-.625h32.125c.345 0 .625.28.625.625V61.5zm0-38.422c0 .344-.28.625-.625.625H15.938a.626.626 0 0 1-.625-.625V2.5c0-.345.28-.625.625-.625h32.125c.345 0 .625.28.625.625v20.578zM19.854 6.048v12.994a.98.98 0 0 1-1.958 0V6.048a.979.979 0 1 1 1.958 0zm0 23.5v12.993a.979.979 0 1 1-1.958 0V29.548a.979.979 0 1 1 1.958 0z"></path>
</svg>
