<svg xmlns="http://www.w3.org/2000/svg" id="ear-buds" viewBox="0 0 1000 1000">
  <path d="M758.38,872.05A113.79,113.79,0,0,1,644.72,758.39V593.71a142.53,142.53,0,0,0-90.23-133.07,33,33,0,0,1-20.89-30.8V238.75a51.62,51.62,0,0,1,6.15-24.62C568.22,161.78,632.24,128,702.83,128c52.42,0,101.94,18.57,135.85,51A109.42,109.42,0,0,1,872,257.76V758.39A113.78,113.78,0,0,1,758.38,872.05ZM702.83,156C642.35,156,588,184,564.34,227.52a23.59,23.59,0,0,0-2.74,11.23V429.84a5.14,5.14,0,0,0,3.25,4.79A171.24,171.24,0,0,1,672.72,593.71V758.39a85.66,85.66,0,0,0,171.32,0V257.76a81.29,81.29,0,0,0-24.7-58.61C790.59,171.7,748.12,156,702.83,156Z"></path>
  <path d="M889.43 419.55H858a14 14 0 0 1-14-14V257.76a14 14 0 0 1 14-14h31.39A49.63 49.63 0 0 1 939 293.33V370A49.63 49.63 0 0 1 889.43 419.55Zm-17.39-28h17.39A21.59 21.59 0 0 0 911 370V293.33a21.59 21.59 0 0 0-21.57-21.57H872ZM784.89 376.67a14 14 0 0 1-14-14V266.26a14 14 0 0 1 28 0v96.41A14 14 0 0 1 784.89 376.67ZM513.6 450c-18.89 0-42.39-5.68-66.2-25.93h0A52.19 52.19 0 0 1 429 384.32V284.27a52.19 52.19 0 0 1 18.45-39.79c53.13-45.18 104.74-17.84 106.91-16.65a14 14 0 0 1 7.29 12.28V428.48a14 14 0 0 1-7.29 12.28C553.11 441.42 536.86 450 513.6 450Zm-48.06-47.26c28.36 24.11 55.49 20.16 68.06 16.27V249.54c-12.64-3.91-39.72-7.83-68.06 16.27A24.21 24.21 0 0 0 457 284.27V384.32a24.21 24.21 0 0 0 8.59 18.46ZM297.17 872.05c-52.42 0-101.94-18.57-135.85-50.95A109.42 109.42 0 0 1 128 742.24V241.61a113.66 113.66 0 1 1 227.32 0V406.29a142.53 142.53 0 0 0 90.23 133.07 33 33 0 0 1 20.89 30.8V761.25a51.62 51.62 0 0 1-6.15 24.62C431.78 838.22 367.76 872.05 297.17 872.05ZM241.62 156A85.75 85.75 0 0 0 156 241.61V742.24a81.29 81.29 0 0 0 24.7 58.61c28.75 27.45 71.22 43.2 116.51 43.2 60.48 0 114.84-28.09 138.49-71.57a23.59 23.59 0 0 0 2.74-11.23V570.16a5.14 5.14 0 0 0-3.25-4.79A171.24 171.24 0 0 1 327.28 406.29V241.61A85.75 85.75 0 0 0 241.62 156Z"></path>
  <path d="M142 756.24H110.57A49.63 49.63 0 0 1 61 706.67V630a49.63 49.63 0 0 1 49.57-49.57H142a14 14 0 0 1 14 14V742.24A14 14 0 0 1 142 756.24ZM110.57 608.45A21.59 21.59 0 0 0 89 630v76.65a21.59 21.59 0 0 0 21.57 21.57H128V608.45ZM215.11 747.74a14 14 0 0 1-14-14V637.33a14 14 0 0 1 28 0v96.41A14 14 0 0 1 215.11 747.74ZM486.4 781.45c-23.26 0-39.51-8.62-40.71-9.28a14 14 0 0 1-7.29-12.28V571.52a14 14 0 0 1 7.29-12.28c2.17-1.19 53.78-28.53 106.91 16.65a52.19 52.19 0 0 1 18.45 39.79V715.73a52.19 52.19 0 0 1-18.45 39.79C528.79 775.76 505.29 781.45 486.4 781.45Zm-20-31c12.64 3.91 39.72 7.83 68.06-16.27h0a24.21 24.21 0 0 0 8.59-18.46V615.68a24.21 24.21 0 0 0-8.59-18.46C506.1 573.11 479 577.06 466.4 581Z"></path>
</svg>
