<svg xmlns="http://www.w3.org/2000/svg" enable-background="new 0 0 1024 1024" viewBox="0 0 1024 1024" id="television">
  <path d="M873.73,259.5H542.18l74.66-74.66l-17.68-17.68L512,254.32l-87.16-87.16l-17.68,17.68l74.66,74.66H150.27
		c-19.17,0-34.77,15.6-34.77,34.77v467.47c0,19.17,15.6,34.77,34.77,34.77H279l-26.15,34.86c-4.17,5.55-4.83,12.86-1.72,19.07
		s9.35,10.07,16.29,10.07h489.16c6.94,0,13.18-3.86,16.29-10.07s2.44-13.52-1.72-19.07L745,796.5h128.73
		c19.17,0,34.77-15.6,34.77-34.77V294.27C908.5,275.1,892.9,259.5,873.73,259.5z M743,835.5H281l29.25-39h403.5L743,835.5z
		 M883.5,761.73c0,5.38-4.38,9.77-9.77,9.77H720H304H150.27c-5.38,0-9.77-4.38-9.77-9.77V294.27c0-5.38,4.38-9.77,9.77-9.77h723.47
		c5.38,0,9.77,4.38,9.77,9.77V761.73z"></path>
  <rect width="271.53" height="25" x="376.24" y="515.5" transform="rotate(-45.001 511.996 528.009)"></rect>
  <rect width="90.51" height="25" x="514.75" y="563.5" transform="rotate(-45.001 559.996 576.01)"></rect>
  <rect width="90.51" height="25" x="418.75" y="467.5" transform="rotate(-45.001 463.997 480.008)"></rect>
  <rect width="48" height="25" x="176" y="179.5"></rect>
  <rect width="26" height="25" x="250" y="179.5"></rect>
  <rect width="32" height="25" x="768" y="179.5"></rect>
</svg>
